<svg width="301" height="65" viewBox="0 0 301 65" fill="none" xmlns="http://www.w3.org/2000/svg">
<path d="M23.0402 60V61H24.0402V60H23.0402ZM23.0402 52.16L22.3331 51.4529L22.0402 51.7458V52.16H23.0402ZM30.8242 44.376V43.376H30.41L30.1171 43.6689L30.8242 44.376ZM34.7442 44.376L35.4488 43.6664L35.1563 43.376H34.7442V44.376ZM42.5842 52.16H43.5842V51.7437L43.2888 51.4504L42.5842 52.16ZM42.5842 60H41.5842V61H42.5842V60ZM50.3682 60V61H51.3682V60H50.3682ZM50.3682 48.296H51.3682V47.8839L51.0778 47.5914L50.3682 48.296ZM42.5842 40.456L41.8746 39.7514L41.175 40.456L41.8746 41.1606L42.5842 40.456ZM50.3682 32.616L51.0778 33.3206L51.3682 33.0281V32.616H50.3682ZM50.3682 20.8H51.3682V19.8H50.3682V20.8ZM42.5842 20.8V19.8H41.5842V20.8H42.5842ZM42.5842 28.696L43.2913 29.4031L43.5842 29.1102V28.696H42.5842ZM34.7442 36.536V37.536H35.1584L35.4513 37.2431L34.7442 36.536ZM30.8242 36.536L30.1146 37.2406L30.4079 37.536H30.8242V36.536ZM23.0402 28.696H22.0402V29.1081L22.3306 29.4006L23.0402 28.696ZM23.0402 20.8H24.0402V19.8H23.0402V20.8ZM15.2002 20.8V19.8H14.2002V20.8H15.2002ZM15.2002 32.616H14.2002V33.0302L14.4931 33.3231L15.2002 32.616ZM23.0402 40.456L23.7473 41.1631L24.4544 40.456L23.7473 39.7489L23.0402 40.456ZM15.2002 48.296L14.4931 47.5889L14.2002 47.8818V48.296H15.2002ZM15.2002 60H14.2002V61H15.2002V60ZM24.0402 60V52.16H22.0402V60H24.0402ZM23.7473 52.8671L31.5313 45.0831L30.1171 43.6689L22.3331 51.4529L23.7473 52.8671ZM30.8242 45.376H34.7442V43.376H30.8242V45.376ZM34.0396 45.0856L41.8796 52.8696L43.2888 51.4504L35.4488 43.6664L34.0396 45.0856ZM41.5842 52.16V60H43.5842V52.16H41.5842ZM42.5842 61H50.3682V59H42.5842V61ZM51.3682 60V48.296H49.3682V60H51.3682ZM51.0778 47.5914L43.2938 39.7514L41.8746 41.1606L49.6586 49.0006L51.0778 47.5914ZM43.2938 41.1606L51.0778 33.3206L49.6586 31.9114L41.8746 39.7514L43.2938 41.1606ZM51.3682 32.616V20.8H49.3682V32.616H51.3682ZM50.3682 19.8H42.5842V21.8H50.3682V19.8ZM41.5842 20.8V28.696H43.5842V20.8H41.5842ZM41.8771 27.9889L34.0371 35.8289L35.4513 37.2431L43.2913 29.4031L41.8771 27.9889ZM34.7442 35.536H30.8242V37.536H34.7442V35.536ZM31.5338 35.8314L23.7498 27.9914L22.3306 29.4006L30.1146 37.2406L31.5338 35.8314ZM24.0402 28.696V20.8H22.0402V28.696H24.0402ZM23.0402 19.8H15.2002V21.8H23.0402V19.8ZM14.2002 20.8V32.616H16.2002V20.8H14.2002ZM14.4931 33.3231L22.3331 41.1631L23.7473 39.7489L15.9073 31.9089L14.4931 33.3231ZM22.3331 39.7489L14.4931 47.5889L15.9073 49.0031L23.7473 41.1631L22.3331 39.7489ZM14.2002 48.296V60H16.2002V48.296H14.2002ZM15.2002 61H23.0402V59H15.2002V61ZM62.6886 40.456H61.6886V41.456H62.6886V40.456ZM62.6886 36.536L61.9765 35.834L61.6886 36.126V36.536H62.6886ZM70.4726 28.64V27.64H70.0542L69.7605 27.938L70.4726 28.64ZM82.2326 28.64H83.2326V27.64H82.2326V28.64ZM82.2326 40.456V41.456H83.2326V40.456H82.2326ZM62.6886 60V61H63.6886V60H62.6886ZM62.6886 48.296V47.296H61.6886V48.296H62.6886ZM82.2326 48.296H83.2326V47.296H82.2326V48.296ZM82.2326 60H81.2326V61H82.2326V60ZM90.0166 60V61H91.0166V60H90.0166ZM90.0166 20.8H91.0166V19.8H90.0166V20.8ZM66.5526 20.8V19.8H66.1356L65.8422 20.0963L66.5526 20.8ZM54.8486 32.616L54.1382 31.9123L53.8486 32.2046V32.616H54.8486ZM54.8486 60H53.8486V61H54.8486V60ZM63.6886 40.456V36.536H61.6886V40.456H63.6886ZM63.4008 37.238L71.1848 29.342L69.7605 27.938L61.9765 35.834L63.4008 37.238ZM70.4726 29.64H82.2326V27.64H70.4726V29.64ZM81.2326 28.64V40.456H83.2326V28.64H81.2326ZM82.2326 39.456H62.6886V41.456H82.2326V39.456ZM63.6886 60V48.296H61.6886V60H63.6886ZM62.6886 49.296H82.2326V47.296H62.6886V49.296ZM81.2326 48.296V60H83.2326V48.296H81.2326ZM82.2326 61H90.0166V59H82.2326V61ZM91.0166 60V20.8H89.0166V60H91.0166ZM90.0166 19.8H66.5526V21.8H90.0166V19.8ZM65.8422 20.0963L54.1382 31.9123L55.5591 33.3197L67.2631 21.5037L65.8422 20.0963ZM53.8486 32.616V60H55.8486V32.616H53.8486ZM54.8486 61H62.6886V59H54.8486V61ZM102.884 60V61H103.884V60H102.884ZM102.884 52.16L102.177 51.4529L101.884 51.7458V52.16H102.884ZM110.668 44.376V43.376H110.254L109.961 43.6689L110.668 44.376ZM114.588 44.376L115.293 43.6664L115 43.376H114.588V44.376ZM122.428 52.16H123.428V51.7437L123.133 51.4504L122.428 52.16ZM122.428 60H121.428V61H122.428V60ZM130.212 60V61H131.212V60H130.212ZM130.212 48.296H131.212V47.8839L130.922 47.5914L130.212 48.296ZM122.428 40.456L121.718 39.7514L121.019 40.456L121.718 41.1606L122.428 40.456ZM130.212 32.616L130.922 33.3206L131.212 33.0281V32.616H130.212ZM130.212 20.8H131.212V19.8H130.212V20.8ZM122.428 20.8V19.8H121.428V20.8H122.428ZM122.428 28.696L123.135 29.4031L123.428 29.1102V28.696H122.428ZM114.588 36.536V37.536H115.002L115.295 37.2431L114.588 36.536ZM110.668 36.536L109.958 37.2406L110.252 37.536H110.668V36.536ZM102.884 28.696H101.884V29.1081L102.174 29.4006L102.884 28.696ZM102.884 20.8H103.884V19.8H102.884V20.8ZM95.044 20.8V19.8H94.044V20.8H95.044ZM95.044 32.616H94.044V33.0302L94.3368 33.3231L95.044 32.616ZM102.884 40.456L103.591 41.1631L104.298 40.456L103.591 39.7489L102.884 40.456ZM95.044 48.296L94.3368 47.5889L94.044 47.8818V48.296H95.044ZM95.044 60H94.044V61H95.044V60ZM103.884 60V52.16H101.884V60H103.884ZM103.591 52.8671L111.375 45.0831L109.961 43.6689L102.177 51.4529L103.591 52.8671ZM110.668 45.376H114.588V43.376H110.668V45.376ZM113.883 45.0856L121.723 52.8696L123.133 51.4504L115.293 43.6664L113.883 45.0856ZM121.428 52.16V60H123.428V52.16H121.428ZM122.428 61H130.212V59H122.428V61ZM131.212 60V48.296H129.212V60H131.212ZM130.922 47.5914L123.138 39.7514L121.718 41.1606L129.502 49.0006L130.922 47.5914ZM123.138 41.1606L130.922 33.3206L129.502 31.9114L121.718 39.7514L123.138 41.1606ZM131.212 32.616V20.8H129.212V32.616H131.212ZM130.212 19.8H122.428V21.8H130.212V19.8ZM121.428 20.8V28.696H123.428V20.8H121.428ZM121.721 27.9889L113.881 35.8289L115.295 37.2431L123.135 29.4031L121.721 27.9889ZM114.588 35.536H110.668V37.536H114.588V35.536ZM111.378 35.8314L103.594 27.9914L102.174 29.4006L109.958 37.2406L111.378 35.8314ZM103.884 28.696V20.8H101.884V28.696H103.884ZM102.884 19.8H95.044V21.8H102.884V19.8ZM94.044 20.8V32.616H96.044V20.8H94.044ZM94.3368 33.3231L102.177 41.1631L103.591 39.7489L95.7511 31.9089L94.3368 33.3231ZM102.177 39.7489L94.3368 47.5889L95.7511 49.0031L103.591 41.1631L102.177 39.7489ZM94.044 48.296V60H96.044V48.296H94.044ZM95.044 61H102.884V59H95.044V61ZM142.532 40.456H141.532V41.456H142.532V40.456ZM142.532 36.536L141.82 35.834L141.532 36.126V36.536H142.532ZM150.316 28.64V27.64H149.898L149.604 27.938L150.316 28.64ZM162.076 28.64H163.076V27.64H162.076V28.64ZM162.076 40.456V41.456H163.076V40.456H162.076ZM142.532 60V61H143.532V60H142.532ZM142.532 48.296V47.296H141.532V48.296H142.532ZM162.076 48.296H163.076V47.296H162.076V48.296ZM162.076 60H161.076V61H162.076V60ZM169.86 60V61H170.86V60H169.86ZM169.86 20.8H170.86V19.8H169.86V20.8ZM146.396 20.8V19.8H145.979L145.686 20.0963L146.396 20.8ZM134.692 32.616L133.982 31.9123L133.692 32.2046V32.616H134.692ZM134.692 60H133.692V61H134.692V60ZM143.532 40.456V36.536H141.532V40.456H143.532ZM143.245 37.238L151.029 29.342L149.604 27.938L141.82 35.834L143.245 37.238ZM150.316 29.64H162.076V27.64H150.316V29.64ZM161.076 28.64V40.456H163.076V28.64H161.076ZM162.076 39.456H142.532V41.456H162.076V39.456ZM143.532 60V48.296H141.532V60H143.532ZM142.532 49.296H162.076V47.296H142.532V49.296ZM161.076 48.296V60H163.076V48.296H161.076ZM162.076 61H169.86V59H162.076V61ZM170.86 60V20.8H168.86V60H170.86ZM169.86 19.8H146.396V21.8H169.86V19.8ZM145.686 20.0963L133.982 31.9123L135.403 33.3197L147.107 21.5037L145.686 20.0963ZM133.692 32.616V60H135.692V32.616H133.692ZM134.692 61H142.532V59H134.692V61ZM195.328 60V61H196.328V60H195.328ZM195.328 28.64V27.64H194.328V28.64H195.328ZM208.936 28.64V29.64H209.936V28.64H208.936ZM208.936 20.8H209.936V19.8H208.936V20.8ZM173.768 20.8V19.8H172.768V20.8H173.768ZM173.768 28.64H172.768V29.64H173.768V28.64ZM187.488 28.64H188.488V27.64H187.488V28.64ZM187.488 60H186.488V61H187.488V60ZM196.328 60V28.64H194.328V60H196.328ZM195.328 29.64H208.936V27.64H195.328V29.64ZM209.936 28.64V20.8H207.936V28.64H209.936ZM208.936 19.8H173.768V21.8H208.936V19.8ZM172.768 20.8V28.64H174.768V20.8H172.768ZM173.768 29.64H187.488V27.64H173.768V29.64ZM186.488 28.64V60H188.488V28.64H186.488ZM187.488 61H195.328V59H187.488V61ZM220.694 52.16H219.694V53.16H220.694V52.16ZM220.694 28.64V27.64H219.694V28.64H220.694ZM240.238 28.64H241.238V27.64H240.238V28.64ZM240.238 52.16V53.16H241.238V52.16H240.238ZM244.158 60V61H244.572L244.865 60.7071L244.158 60ZM248.022 56.136L248.729 56.8431L249.022 56.5502V56.136H248.022ZM248.022 24.776H249.022V24.3701L248.739 24.0791L248.022 24.776ZM244.158 20.8L244.875 20.1031L244.581 19.8H244.158V20.8ZM216.718 20.8V19.8H216.295L216.001 20.1031L216.718 20.8ZM212.854 24.776L212.137 24.0791L211.854 24.3701V24.776H212.854ZM212.854 56.136H211.854V56.5502L212.147 56.8431L212.854 56.136ZM216.718 60L216.011 60.7071L216.304 61H216.718V60ZM221.694 52.16V28.64H219.694V52.16H221.694ZM220.694 29.64H240.238V27.64H220.694V29.64ZM239.238 28.64V52.16H241.238V28.64H239.238ZM240.238 51.16H220.694V53.16H240.238V51.16ZM244.865 60.7071L248.729 56.8431L247.315 55.4289L243.451 59.2929L244.865 60.7071ZM249.022 56.136V24.776H247.022V56.136H249.022ZM248.739 24.0791L244.875 20.1031L243.441 21.4969L247.305 25.4729L248.739 24.0791ZM244.158 19.8H216.718V21.8H244.158V19.8ZM216.001 20.1031L212.137 24.0791L213.571 25.4729L217.435 21.4969L216.001 20.1031ZM211.854 24.776V56.136H213.854V24.776H211.854ZM212.147 56.8431L216.011 60.7071L217.425 59.2929L213.561 55.4289L212.147 56.8431ZM216.718 61H244.158V59H216.718V61ZM261.436 60V61H262.436V60H261.436ZM261.436 44.376V43.376H260.436V44.376H261.436ZM280.98 44.376H281.98V43.376H280.98V44.376ZM280.98 60H279.98V61H280.98V60ZM288.764 60V61H289.764V60H288.764ZM288.764 20.8H289.764V19.8H288.764V20.8ZM280.98 20.8V19.8H279.98V20.8H280.98ZM280.98 36.536V37.536H281.98V36.536H280.98ZM261.436 36.536H260.436V37.536H261.436V36.536ZM261.436 20.8H262.436V19.8H261.436V20.8ZM253.596 20.8V19.8H252.596V20.8H253.596ZM253.596 60H252.596V61H253.596V60ZM262.436 60V44.376H260.436V60H262.436ZM261.436 45.376H280.98V43.376H261.436V45.376ZM279.98 44.376V60H281.98V44.376H279.98ZM280.98 61H288.764V59H280.98V61ZM289.764 60V20.8H287.764V60H289.764ZM288.764 19.8H280.98V21.8H288.764V19.8ZM279.98 20.8V36.536H281.98V20.8H279.98ZM280.98 35.536H261.436V37.536H280.98V35.536ZM262.436 36.536V20.8H260.436V36.536H262.436ZM261.436 19.8H253.596V21.8H261.436V19.8ZM252.596 20.8V60H254.596V20.8H252.596ZM253.596 61H261.436V59H253.596V61Z" fill="#0077FF"/>
<path d="M10.08 51V43.16L17.864 35.376H21.784L29.624 43.16V51H37.408V39.296L29.624 31.456L37.408 23.616V11.8H29.624V19.696L21.784 27.536H17.864L10.08 19.696V11.8H2.24V23.616L10.08 31.456L2.24 39.296V51H10.08ZM49.7284 31.456V27.536L57.5124 19.64H69.2724V31.456H49.7284ZM49.7284 51V39.296H69.2724V51H77.0564V11.8H53.5924L41.8884 23.616V51H49.7284ZM89.9238 51V43.16L97.7078 35.376H101.628L109.468 43.16V51H117.252V39.296L109.468 31.456L117.252 23.616V11.8H109.468V19.696L101.628 27.536H97.7078L89.9238 19.696V11.8H82.0838V23.616L89.9238 31.456L82.0838 39.296V51H89.9238ZM129.572 31.456V27.536L137.356 19.64H149.116V31.456H129.572ZM129.572 51V39.296H149.116V51H156.9V11.8H133.436L121.732 23.616V51H129.572ZM182.368 51V19.64H195.976V11.8H160.808V19.64H174.528V51H182.368ZM207.734 43.16V19.64H227.278V43.16H207.734ZM231.198 51L235.062 47.136V15.776L231.198 11.8H203.758L199.894 15.776V47.136L203.758 51H231.198ZM248.476 51V35.376H268.02V51H275.804V11.8H268.02V27.536H248.476V11.8H240.636V51H248.476Z" fill="#F2F2F2"/>
</svg>
