<svg width="153" height="1389" viewBox="0 0 153 1389" fill="none" xmlns="http://www.w3.org/2000/svg">
<path d="M56.2 8.27775V67.0778C56.2 69.5418 55.752 71.7444 54.856 73.6858C53.96 75.6271 52.7653 77.2698 51.272 78.6138C49.816 79.9578 48.1547 80.9844 46.288 81.6938C44.4213 82.4031 42.4987 82.7578 40.52 82.7578C38.5787 82.7578 36.656 82.4031 34.752 81.6938C32.8853 80.9844 31.2053 79.9578 29.712 78.6138C28.256 77.2698 27.08 75.6271 26.184 73.6858C25.288 71.7444 24.84 69.5418 24.84 67.0778L24.84 25.9738H17V8.27775L56.2 8.27775ZM42.76 25.9738H38.28V62.5978C38.28 64.2404 39.0267 65.0618 40.52 65.0618C42.0133 65.0618 42.76 64.2404 42.76 62.5978V25.9738ZM42.76 113.887L42.76 85.5512H56.2V160.031H42.76L42.76 131.583H17V113.887H42.76ZM43.88 182.272C42.3867 182.272 41.64 183.093 41.64 184.736V219.68H56.2V237.376H28.2C20.7333 237.376 17 233.643 17 226.176L17 169.056H27.08L27.08 217.44C27.08 218.933 27.8267 219.68 29.32 219.68H31.56L31.56 180.256C31.56 175.328 32.624 171.483 34.752 168.72C36.88 165.957 39.9227 164.576 43.88 164.576H56.2L56.2 182.272H43.88ZM56.2 275.372V299.004L29.32 320.788L56.2 342.572V367.1H17V349.404H40.016L17 330.755L17 310.82L38.896 293.068H17V275.372H56.2ZM17 446.103L17 428.407H39.4L17 389.319V371.623H56.2V389.319H33.8L56.2 428.407V446.103H17ZM56.2 450.536V509.336C56.2 511.8 55.752 514.002 54.856 515.944C53.96 517.885 52.7653 519.528 51.272 520.872C49.816 522.216 48.1547 523.242 46.288 523.952C44.4213 524.661 42.4987 525.016 40.52 525.016C38.5787 525.016 36.656 524.661 34.752 523.952C32.8853 523.242 31.2053 522.216 29.712 520.872C28.256 519.528 27.08 517.885 26.184 515.944C25.288 514.002 24.84 511.8 24.84 509.336V468.232H17V450.536H56.2ZM42.76 468.232H38.28V504.856C38.28 506.498 39.0267 507.32 40.52 507.32C42.0133 507.32 42.76 506.498 42.76 504.856V468.232ZM31.56 551.189H41.64L41.64 590.109C42.8347 589.475 43.88 588.504 44.776 587.197C45.672 585.891 46.12 584.117 46.12 581.877L46.12 549.173C46.12 547.531 45.3733 546.709 43.88 546.709H42.76V529.013H43.88C45.7093 529.013 47.408 529.424 48.976 530.245C50.544 531.067 51.9067 532.224 53.064 533.717C54.2213 535.248 55.1173 537.077 55.752 539.205C56.424 541.371 56.76 543.76 56.76 546.373L56.76 589.493C56.76 592.181 56.2187 594.72 55.136 597.109C54.0533 599.499 52.5787 601.571 50.712 603.325C48.8827 605.117 46.736 606.517 44.272 607.525C41.8453 608.571 39.288 609.093 36.6 609.093C33.912 609.093 31.336 608.571 28.872 607.525C26.4453 606.517 24.2987 605.117 22.432 603.325C20.6027 601.571 19.1467 599.499 18.064 597.109C16.9813 594.72 16.44 592.181 16.44 589.493L16.44 546.373C16.44 543.76 16.7573 541.371 17.392 539.205C18.064 537.077 18.9787 535.248 20.136 533.717C21.2933 532.224 22.656 531.067 24.224 530.245C25.792 529.424 27.4907 529.013 29.32 529.013H30.44V546.709H29.32C27.8267 546.709 27.08 547.531 27.08 549.173L27.08 581.877C27.08 584.117 27.528 585.891 28.424 587.197C29.32 588.504 30.3653 589.475 31.56 590.109L31.56 551.189ZM17 687.429L17 667.493L22.6 662.957V628.461L17 623.925V603.989L56.2 635.741V655.677L17 687.429ZM33.8 653.885L43.88 645.709L33.8 637.533L33.8 653.885ZM14.76 731.501V716.045L58.44 751.381V766.837L14.76 731.501ZM17 851.022V831.086L56.2 799.334L56.2 819.27L29.32 841.054L56.2 862.838V882.774L17 851.022ZM56.2 885.029V902.725H34.696L56.2 933.861V959.509L36.6 931.117L17 959.509V933.861L27.752 918.293L17 902.725V885.029H56.2ZM36.6 1044.31V1062.01H17L17 1008.81C17 1006.12 17.504 1003.58 18.512 1001.19C19.5573 998.803 20.9573 996.713 22.712 994.921C24.504 993.166 26.5947 991.766 28.984 990.721C31.3733 989.713 33.912 989.209 36.6 989.209C39.288 989.209 41.8267 989.713 44.216 990.721C46.6053 991.766 48.6773 993.166 50.432 994.921C52.224 996.713 53.624 998.803 54.632 1001.19C55.6773 1003.58 56.2 1006.12 56.2 1008.81L56.2 1062.01H41.64V1012.45C41.64 1010.88 41.192 1009.56 40.296 1008.47C39.4 1007.39 38.168 1006.85 36.6 1006.85C35.032 1006.85 33.8 1007.39 32.904 1008.47C32.008 1009.56 31.56 1010.88 31.56 1012.45L31.56 1044.31H36.6ZM56.2 1066.48V1125.28C56.2 1127.75 55.752 1129.95 54.856 1131.89C53.96 1133.83 52.7653 1135.47 51.272 1136.82C49.816 1138.16 48.1547 1139.19 46.288 1139.9C44.4213 1140.61 42.4987 1140.96 40.52 1140.96C38.84 1140.96 37.1787 1140.68 35.536 1140.12C33.8933 1139.6 32.3813 1138.82 31 1137.77C29.6187 1136.76 28.424 1135.51 27.416 1134.02C26.408 1132.56 25.68 1130.9 25.232 1129.03L17 1140.96V1118.11L24.84 1106.75V1084.18H17V1066.48H56.2ZM42.76 1084.18H38.28V1120.8C38.28 1122.44 39.0267 1123.27 40.52 1123.27C42.0133 1123.27 42.76 1122.44 42.76 1120.8V1084.18ZM56.76 1204.24C56.76 1206.92 56.2187 1209.46 55.136 1211.85C54.0533 1214.24 52.5787 1216.31 50.712 1218.07C48.8827 1219.86 46.736 1221.26 44.272 1222.27C41.8453 1223.31 39.288 1223.84 36.6 1223.84C33.912 1223.84 31.336 1223.31 28.872 1222.27C26.4453 1221.26 24.2987 1219.86 22.432 1218.07C20.6027 1216.31 19.1467 1214.24 18.064 1211.85C16.9813 1209.46 16.44 1206.92 16.44 1204.24L16.44 1163.36C16.44 1160.67 16.9813 1158.13 18.064 1155.74C19.1467 1153.35 20.6027 1151.26 22.432 1149.47C24.2987 1147.71 26.4453 1146.31 28.872 1145.27C31.336 1144.26 33.912 1143.76 36.6 1143.76C39.288 1143.76 41.8453 1144.26 44.272 1145.27C46.736 1146.31 48.8827 1147.71 50.712 1149.47C52.5787 1151.26 54.0533 1153.35 55.136 1155.74C56.2187 1158.13 56.76 1160.67 56.76 1163.36V1204.24ZM42.2 1200.6V1167C42.2 1165.43 41.6587 1164.1 40.576 1163.02C39.4933 1161.94 38.168 1161.4 36.6 1161.4C35.032 1161.4 33.7067 1161.94 32.624 1163.02C31.5413 1164.1 31 1165.43 31 1167L31 1200.6C31 1202.16 31.5413 1203.49 32.624 1204.57C33.7067 1205.65 35.032 1206.2 36.6 1206.2C38.168 1206.2 39.4933 1205.65 40.576 1204.57C41.6587 1203.49 42.2 1202.16 42.2 1200.6ZM36.6 1301.69C33.912 1301.69 31.336 1301.17 28.872 1300.12C26.4453 1299.11 24.2987 1297.71 22.432 1295.92C20.6027 1294.17 19.1467 1292.09 18.064 1289.7C16.9813 1287.32 16.44 1284.78 16.44 1282.09V1246.81C16.44 1244.12 16.9813 1241.58 18.064 1239.19C19.1467 1236.8 20.6027 1234.71 22.432 1232.92C24.2987 1231.17 26.4453 1229.77 28.872 1228.72C31.336 1227.71 33.912 1227.21 36.6 1227.21H56.2V1244.9H36.6C35.032 1244.9 33.7067 1245.45 32.624 1246.53C31.5413 1247.61 31 1248.94 31 1250.5L31 1278.39C31 1279.96 31.5413 1281.29 32.624 1282.37C33.7067 1283.45 35.032 1283.99 36.6 1283.99H56.2L56.2 1301.69H36.6ZM56.2 1306.18V1364.98C56.2 1367.44 55.752 1369.64 54.856 1371.59C53.96 1373.53 52.7653 1375.17 51.272 1376.51C49.816 1377.86 48.1547 1378.88 46.288 1379.59C44.4213 1380.3 42.4987 1380.66 40.52 1380.66C38.5787 1380.66 36.656 1380.3 34.752 1379.59C32.8853 1378.88 31.2053 1377.86 29.712 1376.51C28.256 1375.17 27.08 1373.53 26.184 1371.59C25.288 1369.64 24.84 1367.44 24.84 1364.98V1323.87H17V1306.18H56.2ZM42.76 1323.87H38.28V1360.5C38.28 1362.14 39.0267 1362.96 40.52 1362.96C42.0133 1362.96 42.76 1362.14 42.76 1360.5V1323.87Z" fill="white" fill-opacity="0.5"/>
<path d="M147 31.5103L135.9 46.9903L147 62.4703V89.2303L126.3 60.3703L105 90.0703V63.3103L116.7 46.9903L105 30.6703V3.91031L126.3 33.6103L147 4.75031V31.5103ZM105 180.674V159.314L111 154.454V117.494L105 112.634V91.2736L147 125.294V146.654L105 180.674ZM123 144.734L133.8 135.974L123 127.214V144.734ZM147 183.09V202.05H123.96L147 235.41L147 262.89L126 232.47L105 262.89V235.41L116.52 218.73L105 202.05L105 183.09H147ZM105 353.525V332.165L111 327.305L111 290.345L105 285.485V264.125L147 298.145V319.505L105 353.525ZM123 317.585L133.8 308.825L123 300.065V317.585ZM132.6 370.716V340.356H147V420.156H132.6V389.676H105V370.716H132.6ZM147.6 487.363C147.6 490.243 147.02 492.963 145.86 495.523C144.7 498.083 143.12 500.303 141.12 502.183C139.16 504.103 136.86 505.603 134.22 506.683C131.62 507.803 128.88 508.363 126 508.363C123.12 508.363 120.36 507.803 117.72 506.683C115.12 505.603 112.82 504.103 110.82 502.183C108.86 500.303 107.3 498.083 106.14 495.523C104.98 492.963 104.4 490.243 104.4 487.363V443.563C104.4 440.683 104.98 437.963 106.14 435.403C107.3 432.843 108.86 430.603 110.82 428.683C112.82 426.803 115.12 425.303 117.72 424.183C120.36 423.103 123.12 422.563 126 422.563C128.88 422.563 131.62 423.103 134.22 424.183C136.86 425.303 139.16 426.803 141.12 428.683C143.12 430.603 144.7 432.843 145.86 435.403C147.02 437.963 147.6 440.683 147.6 443.563V487.363ZM132 483.463V447.463C132 445.783 131.42 444.363 130.26 443.203C129.1 442.043 127.68 441.463 126 441.463C124.32 441.463 122.9 442.043 121.74 443.203C120.58 444.363 120 445.783 120 447.463V483.463C120 485.143 120.58 486.563 121.74 487.723C122.9 488.883 124.32 489.463 126 489.463C127.68 489.463 129.1 488.883 130.26 487.723C131.42 486.563 132 485.143 132 483.463ZM147 511.977V530.937H133.2V572.817H147V591.777H105V572.817H118.8V530.937H105V511.977H147ZM102.6 649.183V632.623L149.4 670.483V687.043L102.6 649.183ZM105.06 754.394V735.434H132.18L123 726.254L130.44 718.814L147.06 735.434V754.394H105.06ZM135 758.599C136.96 758.599 138.72 758.959 140.28 759.679C141.84 760.439 143.16 761.479 144.24 762.799C145.32 764.119 146.14 765.699 146.7 767.539C147.3 769.379 147.6 771.399 147.6 773.599V823.399C147.6 825.599 147.3 827.619 146.7 829.459C146.14 831.299 145.32 832.879 144.24 834.199C143.16 835.519 141.84 836.539 140.28 837.259C138.72 838.019 136.96 838.399 135 838.399C132.96 838.399 131.18 837.939 129.66 837.019C128.14 836.139 126.92 834.859 126 833.179C125.08 834.859 123.86 836.139 122.34 837.019C120.82 837.939 119.04 838.399 117 838.399C115.04 838.399 113.28 838.019 111.72 837.259C110.16 836.539 108.84 835.519 107.76 834.199C106.68 832.879 105.84 831.299 105.24 829.459C104.68 827.619 104.4 825.599 104.4 823.399L104.4 773.599C104.4 771.399 104.68 769.379 105.24 767.539C105.84 765.699 106.68 764.119 107.76 762.799C108.84 761.479 110.16 760.439 111.72 759.679C113.28 758.959 115.04 758.599 117 758.599C119.04 758.599 120.82 759.039 122.34 759.919C123.86 760.839 125.08 762.139 126 763.819C126.92 762.139 128.14 760.839 129.66 759.919C131.18 759.039 132.96 758.599 135 758.599ZM136.2 780.199C136.2 778.439 135.4 777.559 133.8 777.559C132.2 777.559 131.4 778.439 131.4 780.199V816.799C131.4 818.559 132.2 819.439 133.8 819.439C135.4 819.439 136.2 818.559 136.2 816.799V780.199ZM115.8 816.799C115.8 818.559 116.6 819.439 118.2 819.439C119.8 819.439 120.6 818.559 120.6 816.799L120.6 780.199C120.6 778.439 119.8 777.559 118.2 777.559C116.6 777.559 115.8 778.439 115.8 780.199L115.8 816.799ZM111.6 842.037C112.6 842.037 113.52 842.217 114.36 842.577C115.24 842.977 116 843.497 116.64 844.137C117.32 844.817 117.84 845.577 118.2 846.417C118.6 847.297 118.8 848.237 118.8 849.237V856.437C118.8 857.437 118.6 858.357 118.2 859.197C117.84 860.077 117.32 860.837 116.64 861.477C116 862.157 115.24 862.677 114.36 863.037C113.52 863.437 112.6 863.637 111.6 863.637C110.6 863.637 109.66 863.437 108.78 863.037C107.94 862.677 107.18 862.157 106.5 861.477C105.86 860.837 105.36 860.077 105 859.197C104.6 858.357 104.4 857.437 104.4 856.437V849.237C104.4 848.237 104.6 847.297 105 846.417C105.36 845.577 105.86 844.817 106.5 844.137C107.18 843.497 107.94 842.977 108.78 842.577C109.66 842.217 110.6 842.037 111.6 842.037ZM105.06 895.664V876.704H132.18L123 867.524L130.44 860.084L147.06 876.704V895.664H105.06ZM147.6 964.083C147.6 966.963 147.02 969.683 145.86 972.243C144.7 974.803 143.12 977.023 141.12 978.903C139.16 980.823 136.86 982.323 134.22 983.403C131.62 984.523 128.88 985.083 126 985.083C123.12 985.083 120.36 984.523 117.72 983.403C115.12 982.323 112.82 980.823 110.82 978.903C108.86 977.023 107.3 974.803 106.14 972.243C104.98 969.683 104.4 966.963 104.4 964.083V920.283C104.4 917.403 104.98 914.683 106.14 912.123C107.3 909.563 108.86 907.323 110.82 905.403C112.82 903.523 115.12 902.023 117.72 900.903C120.36 899.823 123.12 899.283 126 899.283C128.88 899.283 131.62 899.823 134.22 900.903C136.86 902.023 139.16 903.523 141.12 905.403C143.12 907.323 144.7 909.563 145.86 912.123C147.02 914.683 147.6 917.403 147.6 920.283V964.083ZM132 960.183V924.183C132 922.503 131.42 921.083 130.26 919.923C129.1 918.763 127.68 918.183 126 918.183C124.32 918.183 122.9 918.763 121.74 919.923C120.58 921.083 120 922.503 120 924.183V960.183C120 961.863 120.58 963.283 121.74 964.443C122.9 965.603 124.32 966.183 126 966.183C127.68 966.183 129.1 965.603 130.26 964.443C131.42 963.283 132 961.863 132 960.183ZM132 1022.86V1078.06H120V1022.86H132ZM113.4 1118.83C125.4 1118.83 131.4 1124.83 131.4 1136.83V1177.03C131.4 1178.79 132.2 1179.67 133.8 1179.67C135.4 1179.67 136.2 1178.79 136.2 1177.03V1121.23H147V1183.63C147 1185.83 146.68 1187.85 146.04 1189.69C145.4 1191.53 144.5 1193.11 143.34 1194.43C142.18 1195.75 140.78 1196.77 139.14 1197.49C137.54 1198.25 135.76 1198.63 133.8 1198.63C131.84 1198.63 130.04 1198.25 128.4 1197.49C126.8 1196.77 125.42 1195.75 124.26 1194.43C123.1 1193.11 122.2 1191.53 121.56 1189.69C120.92 1187.85 120.6 1185.83 120.6 1183.63L120.6 1141.39C120.6 1138.99 119.4 1137.79 117 1137.79H115.8L115.8 1196.23H105L105 1118.83H113.4ZM105.06 1237.21V1218.25H132.18L123 1209.07L130.44 1201.63L147.06 1218.25L147.06 1237.21H105.06ZM111.6 1242C112.6 1242 113.52 1242.18 114.36 1242.54C115.24 1242.94 116 1243.46 116.64 1244.1C117.32 1244.78 117.84 1245.54 118.2 1246.38C118.6 1247.26 118.8 1248.2 118.8 1249.2V1256.4C118.8 1257.4 118.6 1258.32 118.2 1259.16C117.84 1260.04 117.32 1260.8 116.64 1261.44C116 1262.12 115.24 1262.64 114.36 1263C113.52 1263.4 112.6 1263.6 111.6 1263.6C110.6 1263.6 109.66 1263.4 108.78 1263C107.94 1262.64 107.18 1262.12 106.5 1261.44C105.86 1260.8 105.36 1260.04 105 1259.16C104.6 1258.32 104.4 1257.4 104.4 1256.4V1249.2C104.4 1248.2 104.6 1247.26 105 1246.38C105.36 1245.54 105.86 1244.78 106.5 1244.1C107.18 1243.46 107.94 1242.94 108.78 1242.54C109.66 1242.18 110.6 1242 111.6 1242ZM105.06 1295.62L105.06 1276.66H132.18L123 1267.48L130.44 1260.04L147.06 1276.66V1295.62H105.06ZM147.6 1364.04C147.6 1366.92 147.02 1369.64 145.86 1372.2C144.7 1374.76 143.12 1376.98 141.12 1378.86C139.16 1380.78 136.86 1382.28 134.22 1383.36C131.62 1384.48 128.88 1385.04 126 1385.04C123.12 1385.04 120.36 1384.48 117.72 1383.36C115.12 1382.28 112.82 1380.78 110.82 1378.86C108.86 1376.98 107.3 1374.76 106.14 1372.2C104.98 1369.64 104.4 1366.92 104.4 1364.04V1320.24C104.4 1317.36 104.98 1314.64 106.14 1312.08C107.3 1309.52 108.86 1307.28 110.82 1305.36C112.82 1303.48 115.12 1301.98 117.72 1300.86C120.36 1299.78 123.12 1299.24 126 1299.24C128.88 1299.24 131.62 1299.78 134.22 1300.86C136.86 1301.98 139.16 1303.48 141.12 1305.36C143.12 1307.28 144.7 1309.52 145.86 1312.08C147.02 1314.64 147.6 1317.36 147.6 1320.24V1364.04ZM132 1360.14V1324.14C132 1322.46 131.42 1321.04 130.26 1319.88C129.1 1318.72 127.68 1318.14 126 1318.14C124.32 1318.14 122.9 1318.72 121.74 1319.88C120.58 1321.04 120 1322.46 120 1324.14V1360.14C120 1361.82 120.58 1363.24 121.74 1364.4C122.9 1365.56 124.32 1366.14 126 1366.14C127.68 1366.14 129.1 1365.56 130.26 1364.4C131.42 1363.24 132 1361.82 132 1360.14Z" fill="white" fill-opacity="0.5"/>
</svg>
