<svg width="153" height="1389" viewBox="0 0 153 1389" fill="none" xmlns="http://www.w3.org/2000/svg">
<path d="M56.2 8.27775V67.0778C56.2 69.5418 55.752 71.7444 54.856 73.6858C53.96 75.6271 52.7653 77.2698 51.272 78.6138C49.816 79.9578 48.1547 80.9844 46.288 81.6938C44.4213 82.4031 42.4987 82.7578 40.52 82.7578C38.5787 82.7578 36.656 82.4031 34.752 81.6938C32.8853 80.9844 31.2053 79.9578 29.712 78.6138C28.256 77.2698 27.08 75.6271 26.184 73.6858C25.288 71.7444 24.84 69.5418 24.84 67.0778L24.84 25.9738H17V8.27775L56.2 8.27775ZM42.76 25.9738H38.28V62.5978C38.28 64.2404 39.0267 65.0618 40.52 65.0618C42.0133 65.0618 42.76 64.2404 42.76 62.5978V25.9738ZM42.76 113.887L42.76 85.5512H56.2V160.031H42.76L42.76 131.583H17V113.887H42.76ZM43.88 182.272C42.3867 182.272 41.64 183.093 41.64 184.736V219.68H56.2V237.376H28.2C20.7333 237.376 17 233.643 17 226.176L17 169.056H27.08L27.08 217.44C27.08 218.933 27.8267 219.68 29.32 219.68H31.56L31.56 180.256C31.56 175.328 32.624 171.483 34.752 168.72C36.88 165.957 39.9227 164.576 43.88 164.576H56.2L56.2 182.272H43.88ZM56.2 275.372V299.004L29.32 320.788L56.2 342.572V367.1H17V349.404H40.016L17 330.755L17 310.82L38.896 293.068H17V275.372H56.2ZM17 446.103L17 428.407H39.4L17 389.319V371.623H56.2V389.319H33.8L56.2 428.407V446.103H17ZM56.2 450.536V509.336C56.2 511.8 55.752 514.002 54.856 515.944C53.96 517.885 52.7653 519.528 51.272 520.872C49.816 522.216 48.1547 523.242 46.288 523.952C44.4213 524.661 42.4987 525.016 40.52 525.016C38.5787 525.016 36.656 524.661 34.752 523.952C32.8853 523.242 31.2053 522.216 29.712 520.872C28.256 519.528 27.08 517.885 26.184 515.944C25.288 514.002 24.84 511.8 24.84 509.336V468.232H17V450.536H56.2ZM42.76 468.232H38.28V504.856C38.28 506.498 39.0267 507.32 40.52 507.32C42.0133 507.32 42.76 506.498 42.76 504.856V468.232ZM31.56 551.189H41.64L41.64 590.109C42.8347 589.475 43.88 588.504 44.776 587.197C45.672 585.891 46.12 584.117 46.12 581.877L46.12 549.173C46.12 547.531 45.3733 546.709 43.88 546.709H42.76V529.013H43.88C45.7093 529.013 47.408 529.424 48.976 530.245C50.544 531.067 51.9067 532.224 53.064 533.717C54.2213 535.248 55.1173 537.077 55.752 539.205C56.424 541.371 56.76 543.76 56.76 546.373L56.76 589.493C56.76 592.181 56.2187 594.72 55.136 597.109C54.0533 599.499 52.5787 601.571 50.712 603.325C48.8827 605.117 46.736 606.517 44.272 607.525C41.8453 608.571 39.288 609.093 36.6 609.093C33.912 609.093 31.336 608.571 28.872 607.525C26.4453 606.517 24.2987 605.117 22.432 603.325C20.6027 601.571 19.1467 599.499 18.064 597.109C16.9813 594.72 16.44 592.181 16.44 589.493L16.44 546.373C16.44 543.76 16.7573 541.371 17.392 539.205C18.064 537.077 18.9787 535.248 20.136 533.717C21.2933 532.224 22.656 531.067 24.224 530.245C25.792 529.424 27.4907 529.013 29.32 529.013H30.44V546.709H29.32C27.8267 546.709 27.08 547.531 27.08 549.173L27.08 581.877C27.08 584.117 27.528 585.891 28.424 587.197C29.32 588.504 30.3653 589.475 31.56 590.109L31.56 551.189ZM17 687.429L17 667.493L22.6 662.957V628.461L17 623.925V603.989L56.2 635.741V655.677L17 687.429ZM33.8 653.885L43.88 645.709L33.8 637.533L33.8 653.885ZM14.76 731.501V716.045L58.44 751.381V766.837L14.76 731.501ZM17 851.022V831.086L56.2 799.334L56.2 819.27L29.32 841.054L56.2 862.838V882.774L17 851.022ZM56.2 885.029V902.725H34.696L56.2 933.861V959.509L36.6 931.117L17 959.509V933.861L27.752 918.293L17 902.725V885.029H56.2ZM36.6 1044.31V1062.01H17L17 1008.81C17 1006.12 17.504 1003.58 18.512 1001.19C19.5573 998.803 20.9573 996.713 22.712 994.921C24.504 993.166 26.5947 991.766 28.984 990.721C31.3733 989.713 33.912 989.209 36.6 989.209C39.288 989.209 41.8267 989.713 44.216 990.721C46.6053 991.766 48.6773 993.166 50.432 994.921C52.224 996.713 53.624 998.803 54.632 1001.19C55.6773 1003.58 56.2 1006.12 56.2 1008.81L56.2 1062.01H41.64V1012.45C41.64 1010.88 41.192 1009.56 40.296 1008.47C39.4 1007.39 38.168 1006.85 36.6 1006.85C35.032 1006.85 33.8 1007.39 32.904 1008.47C32.008 1009.56 31.56 1010.88 31.56 1012.45L31.56 1044.31H36.6ZM56.2 1066.48V1125.28C56.2 1127.75 55.752 1129.95 54.856 1131.89C53.96 1133.83 52.7653 1135.47 51.272 1136.82C49.816 1138.16 48.1547 1139.19 46.288 1139.9C44.4213 1140.61 42.4987 1140.96 40.52 1140.96C38.84 1140.96 37.1787 1140.68 35.536 1140.12C33.8933 1139.6 32.3813 1138.82 31 1137.77C29.6187 1136.76 28.424 1135.51 27.416 1134.02C26.408 1132.56 25.68 1130.9 25.232 1129.03L17 1140.96V1118.11L24.84 1106.75V1084.18H17V1066.48H56.2ZM42.76 1084.18H38.28V1120.8C38.28 1122.44 39.0267 1123.27 40.52 1123.27C42.0133 1123.27 42.76 1122.44 42.76 1120.8V1084.18ZM56.76 1204.24C56.76 1206.92 56.2187 1209.46 55.136 1211.85C54.0533 1214.24 52.5787 1216.31 50.712 1218.07C48.8827 1219.86 46.736 1221.26 44.272 1222.27C41.8453 1223.31 39.288 1223.84 36.6 1223.84C33.912 1223.84 31.336 1223.31 28.872 1222.27C26.4453 1221.26 24.2987 1219.86 22.432 1218.07C20.6027 1216.31 19.1467 1214.24 18.064 1211.85C16.9813 1209.46 16.44 1206.92 16.44 1204.24L16.44 1163.36C16.44 1160.67 16.9813 1158.13 18.064 1155.74C19.1467 1153.35 20.6027 1151.26 22.432 1149.47C24.2987 1147.71 26.4453 1146.31 28.872 1145.27C31.336 1144.26 33.912 1143.76 36.6 1143.76C39.288 1143.76 41.8453 1144.26 44.272 1145.27C46.736 1146.31 48.8827 1147.71 50.712 1149.47C52.5787 1151.26 54.0533 1153.35 55.136 1155.74C56.2187 1158.13 56.76 1160.67 56.76 1163.36V1204.24ZM42.2 1200.6V1167C42.2 1165.43 41.6587 1164.1 40.576 1163.02C39.4933 1161.94 38.168 1161.4 36.6 1161.4C35.032 1161.4 33.7067 1161.94 32.624 1163.02C31.5413 1164.1 31 1165.43 31 1167L31 1200.6C31 1202.16 31.5413 1203.49 32.624 1204.57C33.7067 1205.65 35.032 1206.2 36.6 1206.2C38.168 1206.2 39.4933 1205.65 40.576 1204.57C41.6587 1203.49 42.2 1202.16 42.2 1200.6ZM36.6 1301.69C33.912 1301.69 31.336 1301.17 28.872 1300.12C26.4453 1299.11 24.2987 1297.71 22.432 1295.92C20.6027 1294.17 19.1467 1292.09 18.064 1289.7C16.9813 1287.32 16.44 1284.78 16.44 1282.09V1246.81C16.44 1244.12 16.9813 1241.58 18.064 1239.19C19.1467 1236.8 20.6027 1234.71 22.432 1232.92C24.2987 1231.17 26.4453 1229.77 28.872 1228.72C31.336 1227.71 33.912 1227.21 36.6 1227.21H56.2V1244.9H36.6C35.032 1244.9 33.7067 1245.45 32.624 1246.53C31.5413 1247.61 31 1248.94 31 1250.5L31 1278.39C31 1279.96 31.5413 1281.29 32.624 1282.37C33.7067 1283.45 35.032 1283.99 36.6 1283.99H56.2L56.2 1301.69H36.6ZM56.2 1306.18V1364.98C56.2 1367.44 55.752 1369.64 54.856 1371.59C53.96 1373.53 52.7653 1375.17 51.272 1376.51C49.816 1377.86 48.1547 1378.88 46.288 1379.59C44.4213 1380.3 42.4987 1380.66 40.52 1380.66C38.5787 1380.66 36.656 1380.3 34.752 1379.59C32.8853 1378.88 31.2053 1377.86 29.712 1376.51C28.256 1375.17 27.08 1373.53 26.184 1371.59C25.288 1369.64 24.84 1367.44 24.84 1364.98V1323.87H17V1306.18H56.2ZM42.76 1323.87H38.28V1360.5C38.28 1362.14 39.0267 1362.96 40.52 1362.96C42.0133 1362.96 42.76 1362.14 42.76 1360.5V1323.87Z" fill="white" fill-opacity="0.5"/>
<path d="M146.6 32.8229L135.87 47.7869L146.6 62.7509V88.6189L126.59 60.7209L106 89.4309V63.5629L117.31 47.7869L106 32.0109V6.14286L126.59 34.8529L146.6 6.95486V32.8229ZM106 177.014V156.366L111.8 151.668V115.94L106 111.242V90.594L146.6 123.48V144.128L106 177.014ZM123.4 142.272L133.84 133.804L123.4 125.336V142.272ZM146.6 179.35V197.678H124.328L146.6 229.926L146.6 256.49L126.3 227.084L106 256.49V229.926L117.136 213.802L106 197.678L106 179.35H146.6ZM106 344.104V323.456L111.8 318.758L111.8 283.03L106 278.332V257.684L146.6 290.57V311.218L106 344.104ZM123.4 309.362L133.84 300.894L123.4 292.426V309.362ZM132.68 360.721V331.373H146.6V408.513H132.68V379.049H106V360.721H132.68ZM147.18 473.48C147.18 476.264 146.619 478.893 145.498 481.368C144.377 483.843 142.849 485.989 140.916 487.806C139.021 489.662 136.798 491.112 134.246 492.156C131.733 493.239 129.084 493.78 126.3 493.78C123.516 493.78 120.848 493.239 118.296 492.156C115.783 491.112 113.559 489.662 111.626 487.806C109.731 485.989 108.223 483.843 107.102 481.368C105.981 478.893 105.42 476.264 105.42 473.48V431.14C105.42 428.356 105.981 425.727 107.102 423.252C108.223 420.777 109.731 418.612 111.626 416.756C113.559 414.939 115.783 413.489 118.296 412.406C120.848 411.362 123.516 410.84 126.3 410.84C129.084 410.84 131.733 411.362 134.246 412.406C136.798 413.489 139.021 414.939 140.916 416.756C142.849 418.612 144.377 420.777 145.498 423.252C146.619 425.727 147.18 428.356 147.18 431.14V473.48ZM132.1 469.71V434.91C132.1 433.286 131.539 431.913 130.418 430.792C129.297 429.671 127.924 429.11 126.3 429.11C124.676 429.11 123.303 429.671 122.182 430.792C121.061 431.913 120.5 433.286 120.5 434.91V469.71C120.5 471.334 121.061 472.707 122.182 473.828C123.303 474.949 124.676 475.51 126.3 475.51C127.924 475.51 129.297 474.949 130.418 473.828C131.539 472.707 132.1 471.334 132.1 469.71ZM146.6 497.274V515.602H133.26V556.086H146.6V574.414H106V556.086H119.34V515.602H106V497.274H146.6ZM103.68 629.906V613.898L148.92 650.496V666.504L103.68 629.906ZM114.12 705.939C125.72 705.939 131.52 711.739 131.52 723.339V762.199C131.52 763.9 132.293 764.751 133.84 764.751C135.387 764.751 136.16 763.9 136.16 762.199V708.259H146.6L146.6 768.579C146.6 770.706 146.291 772.658 145.672 774.437C145.053 776.216 144.183 777.743 143.062 779.019C141.941 780.295 140.587 781.281 139.002 781.977C137.455 782.712 135.735 783.079 133.84 783.079C131.945 783.079 130.205 782.712 128.62 781.977C127.073 781.281 125.739 780.295 124.618 779.019C123.497 777.743 122.627 776.216 122.008 774.437C121.389 772.658 121.08 770.706 121.08 768.579V727.747C121.08 725.427 119.92 724.267 117.6 724.267H116.44V780.759H106V705.939H114.12ZM122.24 785.972C124.56 785.972 126.861 786.456 129.142 787.422C131.462 788.389 133.395 789.723 134.942 791.424L146.6 803.082V823.498L139.06 815.958V846.292C139.06 849.192 138.538 851.706 137.494 853.832C136.45 855.959 135.116 857.699 133.492 859.052C131.868 860.444 130.051 861.469 128.04 862.126C126.068 862.784 124.135 863.112 122.24 863.112C120.345 863.112 118.393 862.784 116.382 862.126C114.41 861.469 112.612 860.444 110.988 859.052C109.364 857.699 108.03 855.959 106.986 853.832C105.942 851.706 105.42 849.192 105.42 846.292V803.372C105.42 800.472 105.942 797.92 106.986 795.716C108.03 793.551 109.364 791.734 110.988 790.264C112.612 788.834 114.41 787.751 116.382 787.016C118.393 786.32 120.345 785.972 122.24 785.972ZM119.92 842.232C119.92 843.934 120.693 844.784 122.24 844.784C123.787 844.784 124.56 843.934 124.56 842.232L124.56 806.852C124.56 805.151 123.787 804.3 122.24 804.3C120.693 804.3 119.92 805.151 119.92 806.852V842.232ZM112.38 865.439C113.347 865.439 114.236 865.613 115.048 865.961C115.899 866.348 116.633 866.85 117.252 867.469C117.909 868.126 118.412 868.861 118.76 869.673C119.147 870.524 119.34 871.432 119.34 872.399V879.359C119.34 880.326 119.147 881.215 118.76 882.027C118.412 882.878 117.909 883.612 117.252 884.231C116.633 884.888 115.899 885.391 115.048 885.739C114.236 886.126 113.347 886.319 112.38 886.319C111.413 886.319 110.505 886.126 109.654 885.739C108.842 885.391 108.107 884.888 107.45 884.231C106.831 883.612 106.348 882.878 106 882.027C105.613 881.215 105.42 880.326 105.42 879.359V872.399C105.42 871.432 105.613 870.524 106 869.673C106.348 868.861 106.831 868.126 107.45 867.469C108.107 866.85 108.842 866.348 109.654 865.961C110.505 865.613 111.413 865.439 112.38 865.439ZM106.058 917.278V898.95H132.274L123.4 890.076L130.592 882.884L146.658 898.95V917.278H106.058ZM106.058 955.171V936.843H132.274L123.4 927.969L130.592 920.777L146.658 936.843V955.171H106.058ZM132.1 994.58V1047.94H120.5V994.58H132.1ZM147.18 1147.11C147.18 1149.89 146.619 1152.52 145.498 1155C144.377 1157.47 142.849 1159.62 140.916 1161.43C139.021 1163.29 136.798 1164.74 134.246 1165.78C131.733 1166.87 129.084 1167.41 126.3 1167.41C123.516 1167.41 120.848 1166.87 118.296 1165.78C115.783 1164.74 113.559 1163.29 111.626 1161.43C109.731 1159.62 108.223 1157.47 107.102 1155C105.981 1152.52 105.42 1149.89 105.42 1147.11V1104.77C105.42 1101.98 105.981 1099.36 107.102 1096.88C108.223 1094.41 109.731 1092.24 111.626 1090.38C113.559 1088.57 115.783 1087.12 118.296 1086.03C120.848 1084.99 123.516 1084.47 126.3 1084.47C129.084 1084.47 131.733 1084.99 134.246 1086.03C136.798 1087.12 139.021 1088.57 140.916 1090.38C142.849 1092.24 144.377 1094.41 145.498 1096.88C146.619 1099.36 147.18 1101.98 147.18 1104.77V1147.11ZM132.1 1143.34V1108.54C132.1 1106.91 131.539 1105.54 130.418 1104.42C129.297 1103.3 127.924 1102.74 126.3 1102.74C124.676 1102.74 123.303 1103.3 122.182 1104.42C121.061 1105.54 120.5 1106.91 120.5 1108.54V1143.34C120.5 1144.96 121.061 1146.34 122.182 1147.46C123.303 1148.58 124.676 1149.14 126.3 1149.14C127.924 1149.14 129.297 1148.58 130.418 1147.46C131.539 1146.34 132.1 1144.96 132.1 1143.34ZM136.16 1170.28H146.6V1231.18C146.6 1233.31 146.349 1235.26 145.846 1237.04C145.343 1238.82 144.589 1240.34 143.584 1241.62C142.617 1242.89 141.419 1243.88 139.988 1244.58C138.557 1245.31 136.895 1245.68 135 1245.68C133.028 1245.68 131.307 1245.23 129.838 1244.34C128.407 1243.49 127.228 1242.28 126.3 1240.69C125.411 1242.28 124.231 1243.49 122.762 1244.34C121.331 1245.23 119.63 1245.68 117.658 1245.68C115.763 1245.68 114.101 1245.31 112.67 1244.58C111.239 1243.88 110.021 1242.89 109.016 1241.62C108.049 1240.34 107.315 1238.82 106.812 1237.04C106.309 1235.26 106.058 1233.31 106.058 1231.18V1170.28H116.498V1224.8C116.498 1226.5 117.271 1227.35 118.818 1227.35C120.365 1227.35 121.138 1226.5 121.138 1224.8V1174.92H131.52V1224.8C131.52 1226.5 132.293 1227.35 133.84 1227.35C135.387 1227.35 136.16 1226.5 136.16 1224.8V1170.28ZM112.38 1249.18C113.347 1249.18 114.236 1249.35 115.048 1249.7C115.899 1250.09 116.633 1250.59 117.252 1251.21C117.909 1251.87 118.412 1252.6 118.76 1253.41C119.147 1254.26 119.34 1255.17 119.34 1256.14V1263.1C119.34 1264.07 119.147 1264.96 118.76 1265.77C118.412 1266.62 117.909 1267.35 117.252 1267.97C116.633 1268.63 115.899 1269.13 115.048 1269.48C114.236 1269.87 113.347 1270.06 112.38 1270.06C111.413 1270.06 110.505 1269.87 109.654 1269.48C108.842 1269.13 108.107 1268.63 107.45 1267.97C106.831 1267.35 106.348 1266.62 106 1265.77C105.613 1264.96 105.42 1264.07 105.42 1263.1V1256.14C105.42 1255.17 105.613 1254.26 106 1253.41C106.348 1252.6 106.831 1251.87 107.45 1251.21C108.107 1250.59 108.842 1250.09 109.654 1249.7C110.505 1249.35 111.413 1249.18 112.38 1249.18ZM106.058 1301.02L106.058 1282.69H132.274L123.4 1273.82L130.592 1266.62L146.658 1282.69V1301.02H106.058ZM114.12 1305.65C125.72 1305.65 131.52 1311.45 131.52 1323.05V1361.91C131.52 1363.61 132.293 1364.46 133.84 1364.46C135.387 1364.46 136.16 1363.61 136.16 1361.91V1307.97H146.6V1368.29C146.6 1370.42 146.291 1372.37 145.672 1374.15C145.053 1375.93 144.183 1377.45 143.062 1378.73C141.941 1380.01 140.587 1380.99 139.002 1381.69C137.455 1382.42 135.735 1382.79 133.84 1382.79C131.945 1382.79 130.205 1382.42 128.62 1381.69C127.073 1380.99 125.739 1380.01 124.618 1378.73C123.497 1377.45 122.627 1375.93 122.008 1374.15C121.389 1372.37 121.08 1370.42 121.08 1368.29V1327.46C121.08 1325.14 119.92 1323.98 117.6 1323.98H116.44V1380.47H106V1305.65H114.12Z" fill="white" fill-opacity="0.5"/>
</svg>
