<svg width="250" height="1385" viewBox="0 0 250 1385" fill="none" xmlns="http://www.w3.org/2000/svg">
<path d="M153.2 5.27775V64.0778C153.2 66.5418 152.752 68.7444 151.856 70.6858C150.96 72.6271 149.765 74.2698 148.272 75.6138C146.816 76.9578 145.155 77.9844 143.288 78.6938C141.421 79.4031 139.499 79.7578 137.52 79.7578C135.579 79.7578 133.656 79.4031 131.752 78.6938C129.885 77.9844 128.205 76.9578 126.712 75.6138C125.256 74.2698 124.08 72.6271 123.184 70.6858C122.288 68.7444 121.84 66.5418 121.84 64.0778V22.9738H114V5.27775L153.2 5.27775ZM139.76 22.9738H135.28V59.5978C135.28 61.2404 136.027 62.0618 137.52 62.0618C139.013 62.0618 139.76 61.2404 139.76 59.5978V22.9738ZM139.76 110.887V82.5512H153.2V157.031H139.76V128.583H114V110.887H139.76ZM140.88 179.272C139.387 179.272 138.64 180.093 138.64 181.736V216.68H153.2V234.376H125.2C117.733 234.376 114 230.643 114 223.176L114 166.056H124.08L124.08 214.44C124.08 215.933 124.827 216.68 126.32 216.68H128.56V177.256C128.56 172.328 129.624 168.483 131.752 165.72C133.88 162.957 136.923 161.576 140.88 161.576H153.2V179.272H140.88ZM153.2 272.372V296.004L126.32 317.788L153.2 339.572V364.1H114V346.404H137.016L114 327.755L114 307.82L135.896 290.068H114V272.372H153.2ZM114 443.103V425.407H136.4L114 386.319V368.623H153.2V386.319H130.8L153.2 425.407V443.103H114ZM153.2 447.536V506.336C153.2 508.8 152.752 511.002 151.856 512.944C150.96 514.885 149.765 516.528 148.272 517.872C146.816 519.216 145.155 520.242 143.288 520.952C141.421 521.661 139.499 522.016 137.52 522.016C135.579 522.016 133.656 521.661 131.752 520.952C129.885 520.242 128.205 519.216 126.712 517.872C125.256 516.528 124.08 514.885 123.184 512.944C122.288 511.002 121.84 508.8 121.84 506.336V465.232H114V447.536H153.2ZM139.76 465.232H135.28V501.856C135.28 503.498 136.027 504.32 137.52 504.32C139.013 504.32 139.76 503.498 139.76 501.856V465.232ZM128.56 548.189H138.64V587.109C139.835 586.475 140.88 585.504 141.776 584.197C142.672 582.891 143.12 581.117 143.12 578.877V546.173C143.12 544.531 142.373 543.709 140.88 543.709H139.76V526.013H140.88C142.709 526.013 144.408 526.424 145.976 527.245C147.544 528.067 148.907 529.224 150.064 530.717C151.221 532.248 152.117 534.077 152.752 536.205C153.424 538.371 153.76 540.76 153.76 543.373V586.493C153.76 589.181 153.219 591.72 152.136 594.109C151.053 596.499 149.579 598.571 147.712 600.325C145.883 602.117 143.736 603.517 141.272 604.525C138.845 605.571 136.288 606.093 133.6 606.093C130.912 606.093 128.336 605.571 125.872 604.525C123.445 603.517 121.299 602.117 119.432 600.325C117.603 598.571 116.147 596.499 115.064 594.109C113.981 591.72 113.44 589.181 113.44 586.493V543.373C113.44 540.76 113.757 538.371 114.392 536.205C115.064 534.077 115.979 532.248 117.136 530.717C118.293 529.224 119.656 528.067 121.224 527.245C122.792 526.424 124.491 526.013 126.32 526.013H127.44V543.709H126.32C124.827 543.709 124.08 544.531 124.08 546.173V578.877C124.08 581.117 124.528 582.891 125.424 584.197C126.32 585.504 127.365 586.475 128.56 587.109V548.189ZM114 684.429L114 664.493L119.6 659.957V625.461L114 620.925V600.989L153.2 632.741V652.677L114 684.429ZM130.8 650.885L140.88 642.709L130.8 634.533V650.885ZM111.76 728.501V713.045L155.44 748.381V763.837L111.76 728.501ZM114 848.022V828.086L153.2 796.334V816.27L126.32 838.054L153.2 859.838V879.774L114 848.022ZM153.2 882.029V899.725H131.696L153.2 930.861V956.509L133.6 928.117L114 956.509V930.861L124.752 915.293L114 899.725V882.029H153.2ZM133.6 1041.31V1059.01H114V1005.81C114 1003.12 114.504 1000.58 115.512 998.193C116.557 995.803 117.957 993.713 119.712 991.921C121.504 990.166 123.595 988.766 125.984 987.721C128.373 986.713 130.912 986.209 133.6 986.209C136.288 986.209 138.827 986.713 141.216 987.721C143.605 988.766 145.677 990.166 147.432 991.921C149.224 993.713 150.624 995.803 151.632 998.193C152.677 1000.58 153.2 1003.12 153.2 1005.81V1059.01H138.64V1009.45C138.64 1007.88 138.192 1006.56 137.296 1005.47C136.4 1004.39 135.168 1003.85 133.6 1003.85C132.032 1003.85 130.8 1004.39 129.904 1005.47C129.008 1006.56 128.56 1007.88 128.56 1009.45V1041.31H133.6ZM153.2 1063.48V1122.28C153.2 1124.75 152.752 1126.95 151.856 1128.89C150.96 1130.83 149.765 1132.47 148.272 1133.82C146.816 1135.16 145.155 1136.19 143.288 1136.9C141.421 1137.61 139.499 1137.96 137.52 1137.96C135.84 1137.96 134.179 1137.68 132.536 1137.12C130.893 1136.6 129.381 1135.82 128 1134.77C126.619 1133.76 125.424 1132.51 124.416 1131.02C123.408 1129.56 122.68 1127.9 122.232 1126.03L114 1137.96V1115.11L121.84 1103.75V1081.18H114V1063.48H153.2ZM139.76 1081.18H135.28V1117.8C135.28 1119.44 136.027 1120.27 137.52 1120.27C139.013 1120.27 139.76 1119.44 139.76 1117.8V1081.18ZM153.76 1201.24C153.76 1203.92 153.219 1206.46 152.136 1208.85C151.053 1211.24 149.579 1213.31 147.712 1215.07C145.883 1216.86 143.736 1218.26 141.272 1219.27C138.845 1220.31 136.288 1220.84 133.6 1220.84C130.912 1220.84 128.336 1220.31 125.872 1219.27C123.445 1218.26 121.299 1216.86 119.432 1215.07C117.603 1213.31 116.147 1211.24 115.064 1208.85C113.981 1206.46 113.44 1203.92 113.44 1201.24L113.44 1160.36C113.44 1157.67 113.981 1155.13 115.064 1152.74C116.147 1150.35 117.603 1148.26 119.432 1146.47C121.299 1144.71 123.445 1143.31 125.872 1142.27C128.336 1141.26 130.912 1140.76 133.6 1140.76C136.288 1140.76 138.845 1141.26 141.272 1142.27C143.736 1143.31 145.883 1144.71 147.712 1146.47C149.579 1148.26 151.053 1150.35 152.136 1152.74C153.219 1155.13 153.76 1157.67 153.76 1160.36V1201.24ZM139.2 1197.6V1164C139.2 1162.43 138.659 1161.1 137.576 1160.02C136.493 1158.94 135.168 1158.4 133.6 1158.4C132.032 1158.4 130.707 1158.94 129.624 1160.02C128.541 1161.1 128 1162.43 128 1164V1197.6C128 1199.16 128.541 1200.49 129.624 1201.57C130.707 1202.65 132.032 1203.2 133.6 1203.2C135.168 1203.2 136.493 1202.65 137.576 1201.57C138.659 1200.49 139.2 1199.16 139.2 1197.6ZM133.6 1298.69C130.912 1298.69 128.336 1298.17 125.872 1297.12C123.445 1296.11 121.299 1294.71 119.432 1292.92C117.603 1291.17 116.147 1289.09 115.064 1286.7C113.981 1284.32 113.44 1281.78 113.44 1279.09V1243.81C113.44 1241.12 113.981 1238.58 115.064 1236.19C116.147 1233.8 117.603 1231.71 119.432 1229.92C121.299 1228.17 123.445 1226.77 125.872 1225.72C128.336 1224.71 130.912 1224.21 133.6 1224.21H153.2L153.2 1241.9H133.6C132.032 1241.9 130.707 1242.45 129.624 1243.53C128.541 1244.61 128 1245.94 128 1247.5L128 1275.39C128 1276.96 128.541 1278.29 129.624 1279.37C130.707 1280.45 132.032 1280.99 133.6 1280.99H153.2V1298.69H133.6ZM153.2 1303.18V1361.98C153.2 1364.44 152.752 1366.64 151.856 1368.59C150.96 1370.53 149.765 1372.17 148.272 1373.51C146.816 1374.86 145.155 1375.88 143.288 1376.59C141.421 1377.3 139.499 1377.66 137.52 1377.66C135.579 1377.66 133.656 1377.3 131.752 1376.59C129.885 1375.88 128.205 1374.86 126.712 1373.51C125.256 1372.17 124.08 1370.53 123.184 1368.59C122.288 1366.64 121.84 1364.44 121.84 1361.98V1320.87H114V1303.18H153.2ZM139.76 1320.87H135.28V1357.5C135.28 1359.14 136.027 1359.96 137.52 1359.96C139.013 1359.96 139.76 1359.14 139.76 1357.5V1320.87Z" fill="white" fill-opacity="0.5"/>
<path d="M244 28.5103L232.9 43.9903L244 59.4703V86.2303L223.3 57.3703L202 87.0703V60.3103L213.7 43.9903L202 27.6703V0.910313L223.3 30.6103L244 1.75031V28.5103ZM202 177.674V156.314L208 151.454V114.494L202 109.634V88.2736L244 122.294V143.654L202 177.674ZM220 141.734L230.8 132.974L220 124.214V141.734ZM244 180.09V199.05H220.96L244 232.41L244 259.89L223 229.47L202 259.89V232.41L213.52 215.73L202 199.05V180.09H244ZM202 350.525V329.165L208 324.305L208 287.345L202 282.485V261.125L244 295.145V316.505L202 350.525ZM220 314.585L230.8 305.825L220 297.065V314.585ZM229.6 367.716V337.356H244V417.156H229.6V386.676H202V367.716H229.6ZM244.6 484.363C244.6 487.243 244.02 489.963 242.86 492.523C241.7 495.083 240.12 497.303 238.12 499.183C236.16 501.103 233.86 502.603 231.22 503.683C228.62 504.803 225.88 505.363 223 505.363C220.12 505.363 217.36 504.803 214.72 503.683C212.12 502.603 209.82 501.103 207.82 499.183C205.86 497.303 204.3 495.083 203.14 492.523C201.98 489.963 201.4 487.243 201.4 484.363V440.563C201.4 437.683 201.98 434.963 203.14 432.403C204.3 429.843 205.86 427.603 207.82 425.683C209.82 423.803 212.12 422.303 214.72 421.183C217.36 420.103 220.12 419.563 223 419.563C225.88 419.563 228.62 420.103 231.22 421.183C233.86 422.303 236.16 423.803 238.12 425.683C240.12 427.603 241.7 429.843 242.86 432.403C244.02 434.963 244.6 437.683 244.6 440.563V484.363ZM229 480.463V444.463C229 442.783 228.42 441.363 227.26 440.203C226.1 439.043 224.68 438.463 223 438.463C221.32 438.463 219.9 439.043 218.74 440.203C217.58 441.363 217 442.783 217 444.463V480.463C217 482.143 217.58 483.563 218.74 484.723C219.9 485.883 221.32 486.463 223 486.463C224.68 486.463 226.1 485.883 227.26 484.723C228.42 483.563 229 482.143 229 480.463ZM244 508.977V527.937H230.2V569.817H244V588.777H202V569.817H215.8V527.937H202V508.977H244ZM199.6 646.183V629.623L246.4 667.483V684.043L199.6 646.183ZM210.4 724.838C222.4 724.838 228.4 730.838 228.4 742.838V783.037C228.4 784.798 229.2 785.678 230.8 785.678C232.4 785.678 233.2 784.798 233.2 783.037V727.238H244V789.638C244 791.838 243.68 793.858 243.04 795.698C242.4 797.538 241.5 799.118 240.34 800.438C239.18 801.758 237.78 802.778 236.14 803.498C234.54 804.258 232.76 804.638 230.8 804.638C228.84 804.638 227.04 804.258 225.4 803.498C223.8 802.778 222.42 801.758 221.26 800.438C220.1 799.118 219.2 797.538 218.56 795.698C217.92 793.858 217.6 791.838 217.6 789.638V747.398C217.6 744.998 216.4 743.798 214 743.798H212.8V802.238H202V724.838H210.4ZM244.6 872.43C244.6 875.31 244.02 878.03 242.86 880.59C241.7 883.15 240.12 885.37 238.12 887.25C236.16 889.17 233.86 890.67 231.22 891.75C228.62 892.87 225.88 893.43 223 893.43C220.12 893.43 217.36 892.87 214.72 891.75C212.12 890.67 209.82 889.17 207.82 887.25C205.86 885.37 204.3 883.15 203.14 880.59C201.98 878.03 201.4 875.31 201.4 872.43V828.63C201.4 825.75 201.98 823.03 203.14 820.47C204.3 817.91 205.86 815.67 207.82 813.75C209.82 811.87 212.12 810.37 214.72 809.25C217.36 808.17 220.12 807.63 223 807.63C225.88 807.63 228.62 808.17 231.22 809.25C233.86 810.37 236.16 811.87 238.12 813.75C240.12 815.67 241.7 817.91 242.86 820.47C244.02 823.03 244.6 825.75 244.6 828.63V872.43ZM229 868.53V832.53C229 830.85 228.42 829.43 227.26 828.27C226.1 827.11 224.68 826.53 223 826.53C221.32 826.53 219.9 827.11 218.74 828.27C217.58 829.43 217 830.85 217 832.53V868.53C217 870.21 217.58 871.63 218.74 872.79C219.9 873.95 221.32 874.53 223 874.53C224.68 874.53 226.1 873.95 227.26 872.79C228.42 871.63 229 870.21 229 868.53ZM208.6 894.642C209.6 894.642 210.52 894.822 211.36 895.182C212.24 895.582 213 896.102 213.64 896.742C214.32 897.422 214.84 898.182 215.2 899.022C215.6 899.902 215.8 900.842 215.8 901.842V909.042C215.8 910.042 215.6 910.962 215.2 911.802C214.84 912.682 214.32 913.442 213.64 914.082C213 914.762 212.24 915.282 211.36 915.642C210.52 916.042 209.6 916.242 208.6 916.242C207.6 916.242 206.66 916.042 205.78 915.642C204.94 915.282 204.18 914.762 203.5 914.082C202.86 913.442 202.36 912.682 202 911.802C201.6 910.962 201.4 910.042 201.4 909.042V901.842C201.4 900.842 201.6 899.902 202 899.022C202.36 898.182 202.86 897.422 203.5 896.742C204.18 896.102 204.94 895.582 205.78 895.182C206.66 894.822 207.6 894.642 208.6 894.642ZM202.06 948.269V929.309H229.18L220 920.129L227.44 912.689L244.06 929.309V948.269H202.06ZM202.06 987.468V968.508H229.18L220 959.328L227.44 951.888L244.06 968.508V987.468H202.06ZM229 1028.24V1083.44H217V1028.24H229ZM210.4 1124.21C222.4 1124.21 228.4 1130.21 228.4 1142.21V1182.41C228.4 1184.17 229.2 1185.05 230.8 1185.05C232.4 1185.05 233.2 1184.17 233.2 1182.41V1126.61H244V1189.01C244 1191.21 243.68 1193.23 243.04 1195.07C242.4 1196.91 241.5 1198.49 240.34 1199.81C239.18 1201.13 237.78 1202.15 236.14 1202.87C234.54 1203.63 232.76 1204.01 230.8 1204.01C228.84 1204.01 227.04 1203.63 225.4 1202.87C223.8 1202.15 222.42 1201.13 221.26 1199.81C220.1 1198.49 219.2 1196.91 218.56 1195.07C217.92 1193.23 217.6 1191.21 217.6 1189.01V1146.77C217.6 1144.37 216.4 1143.17 214 1143.17H212.8V1201.61H202V1124.21H210.4ZM218.8 1207.01C221.2 1207.01 223.58 1207.51 225.94 1208.51C228.34 1209.51 230.34 1210.89 231.94 1212.65L244 1224.71L244 1245.83L236.2 1238.03V1269.41C236.2 1272.41 235.66 1275.01 234.58 1277.21C233.5 1279.41 232.12 1281.21 230.44 1282.61C228.76 1284.05 226.88 1285.11 224.8 1285.79C222.76 1286.47 220.76 1286.81 218.8 1286.81C216.84 1286.81 214.82 1286.47 212.74 1285.79C210.7 1285.11 208.84 1284.05 207.16 1282.61C205.48 1281.21 204.1 1279.41 203.02 1277.21C201.94 1275.01 201.4 1272.41 201.4 1269.41V1225.01C201.4 1222.01 201.94 1219.37 203.02 1217.09C204.1 1214.85 205.48 1212.97 207.16 1211.45C208.84 1209.97 210.7 1208.85 212.74 1208.09C214.82 1207.37 216.84 1207.01 218.8 1207.01ZM216.4 1265.21C216.4 1266.97 217.2 1267.85 218.8 1267.85C220.4 1267.85 221.2 1266.97 221.2 1265.21L221.2 1228.61C221.2 1226.85 220.4 1225.97 218.8 1225.97C217.2 1225.97 216.4 1226.85 216.4 1228.61V1265.21ZM208.6 1289.21C209.6 1289.21 210.52 1289.39 211.36 1289.75C212.24 1290.15 213 1290.67 213.64 1291.31C214.32 1291.99 214.84 1292.75 215.2 1293.59C215.6 1294.47 215.8 1295.41 215.8 1296.41V1303.61C215.8 1304.61 215.6 1305.53 215.2 1306.37C214.84 1307.25 214.32 1308.01 213.64 1308.65C213 1309.33 212.24 1309.85 211.36 1310.21C210.52 1310.61 209.6 1310.81 208.6 1310.81C207.6 1310.81 206.66 1310.61 205.78 1310.21C204.94 1309.85 204.18 1309.33 203.5 1308.65C202.86 1308.01 202.36 1307.25 202 1306.37C201.6 1305.53 201.4 1304.61 201.4 1303.61V1296.41C201.4 1295.41 201.6 1294.47 202 1293.59C202.36 1292.75 202.86 1291.99 203.5 1291.31C204.18 1290.67 204.94 1290.15 205.78 1289.75C206.66 1289.39 207.6 1289.21 208.6 1289.21ZM202.06 1342.84V1323.88H229.18L220 1314.7L227.44 1307.26L244.06 1323.88V1342.84H202.06ZM202.06 1382.04V1363.08H229.18L220 1353.9L227.44 1346.46L244.06 1363.08V1382.04H202.06Z" fill="white" fill-opacity="0.5"/>
</svg>
