<svg width="255" height="1467" viewBox="0 0 255 1467" fill="none" xmlns="http://www.w3.org/2000/svg">
<path d="M52.202 312.237H72.88V346.439H52.202V312.237ZM18 312.237H38.482V353.299L45.342 360.061H79.642L86.6 353.299L86.6 298.517H18V312.237ZM18 403.649H72.88V427.463H86.6V365.919H72.88V389.929H18V403.649ZM18 438.142V472.442L38.482 492.924H86.6V479.302H59.062V458.722L72.782 445.1H86.6V431.38H65.922L45.342 451.862V479.302L31.72 465.582V438.142H18ZM18 554.749H64.256L37.894 573.075V584.541L64.256 602.475H18L18 616.195H86.6V602.965L53.378 578.661L86.6 554.749V541.029H18V554.749ZM18 639.733L63.766 673.935H18V687.557H86.6V673.935L40.932 639.733H86.6V626.013H18V639.733ZM52.202 711.032H72.88V745.234H52.202V711.032ZM18 711.032H38.482V752.094L45.342 758.856H79.642L86.6 752.094V697.312H18V711.032ZM18 821.456L24.762 828.218H79.642L86.6 821.456V773.436L79.642 766.674H66.02V780.394H72.88L72.88 814.596H59.062L59.062 787.156H45.342L45.342 814.596H31.72V780.394H38.482V766.674H24.762L18 773.436V821.456ZM52.202 850.736H59.062L72.88 864.358V884.938H52.202V850.736ZM18 850.736H38.482L38.482 884.938H18V898.56H86.6V857.498L65.922 837.016H18V850.736ZM18 959.238L86.6 997.458V981.19L18 942.676V959.238ZM31.72 1074.78V1067.92L45.342 1054.3H86.6V1040.58H38.482L18 1061.06V1081.64L38.482 1102.12H86.6V1088.5H45.342L31.72 1074.78ZM18 1124.66H45.342V1145.14L31.72 1158.86H18V1172.49H38.482L52.202 1158.86L65.922 1172.49H86.6V1158.86H72.782L59.062 1145.14V1124.66H86.6V1110.94H18V1124.66Z" fill="white" fill-opacity="0.5"/>
<path d="M147 20.3248H162.12L177.132 35.3368V42.8968L162.12 58.0168H147V73.0288H169.572L184.692 58.0168L199.812 73.0288H222.6V58.0168H207.372L192.252 42.8968V35.3368L207.372 20.3248L222.6 20.3248V5.20477L199.812 5.20477L184.692 20.3248L169.572 5.20477L147 5.20477V20.3248ZM184.692 96.7896H192.252L207.48 111.802V134.482H184.692V96.7896ZM147 96.7896H169.572V134.482H147V149.494H222.6V104.242L199.812 81.6696H147V96.7896ZM147 174.309H162.12L177.132 189.321V196.881L162.12 212.001H147V227.013H169.572L184.692 212.001L199.812 227.013H222.6V212.001H207.372L192.252 196.881V189.321L207.372 174.309H222.6V159.189H199.812L184.692 174.309L169.572 159.189H147V174.309ZM184.692 250.774H192.252L207.48 265.786V288.466H184.692V250.774ZM147 250.774H169.572V288.466H147V303.478H222.6L222.6 258.226L199.812 235.654H147V250.774ZM147 352.594H207.48V378.838H222.6V311.014H207.48V337.474H147V352.594ZM162.12 401.514H207.48V439.206H162.12V401.514ZM147 446.766L154.452 454.218H214.932L222.6 446.766V393.846L214.932 386.394H154.452L147 393.846V446.766ZM147 480.088H177.132V517.78H147V532.792H222.6V517.78H192.252V480.088H222.6V464.968H147V480.088ZM147 599.637L222.6 641.757V623.829L147 581.385V599.637ZM147 717.247H222.6L222.6 687.115H207.48V702.235H147V717.247ZM147 788.379L154.452 795.831H188.58L196.032 788.379V743.127H207.48V792.591H222.6V728.007H180.804V750.579V780.819H162.12V743.127H169.572V728.007H154.452L147 735.459V788.379ZM147 805.502V820.622H162.12V805.502H147ZM171.948 845.432H207.48V873.404L171.948 845.432ZM162.12 883.124V855.692L197.328 883.124H162.12ZM147 890.684L154.452 898.136H214.932L222.6 890.684V837.764L214.932 830.312H154.452L147 837.764V890.684ZM177.132 903.486H162.12V948.738H147V963.858H162.12V971.31H177.132V963.858H222.6V948.738L177.132 903.486ZM177.132 948.738V922.386L203.268 948.738H177.132ZM177.132 1018.92V1101.76H192.252V1018.92H177.132ZM207.48 1202.09H199.812L162.12 1149.28H147V1217.1H162.12V1174.98L192.252 1217.1H214.932L222.6 1209.65V1156.73L214.932 1149.28H199.92V1164.4H207.48V1202.09ZM147 1283.93L154.452 1291.38H184.8L192.36 1283.93V1272.37L201.108 1291.38H222.6L222.6 1223.55H199.92V1238.67H207.48V1276.37L192.252 1246.13H177.132V1276.37H162.12V1238.67H169.572V1223.55H154.452L147 1231.01V1283.93ZM147 1301.1V1316.22H162.12V1301.1H147ZM171.948 1341.03H207.48V1369L171.948 1341.03ZM162.12 1378.72V1351.29L197.328 1378.72H162.12ZM147 1386.28L154.452 1393.73H214.932L222.6 1386.28V1333.36L214.932 1325.91H154.452L147 1333.36L147 1386.28ZM177.132 1399.08H162.12V1444.34H147V1459.46H162.12V1466.91H177.132V1459.46H222.6V1444.34L177.132 1399.08ZM177.132 1444.34V1417.98L203.268 1444.34H177.132Z" fill="white" fill-opacity="0.5"/>
</svg>
