<svg width="255" height="1467" viewBox="0 0 255 1467" fill="none" xmlns="http://www.w3.org/2000/svg">
<path d="M52.202 69.3495H72.88V103.551H52.202V69.3495ZM18 69.3495H38.482V110.411L45.342 117.173H79.642L86.6 110.411V55.6295L18 55.6295V69.3495ZM18 160.761H72.88L72.88 184.575H86.6L86.6 123.031H72.88V147.041H18V160.761ZM18 195.254V229.554L38.482 250.036H86.6V236.414H59.062V215.834L72.782 202.212H86.6V188.492H65.922L45.342 208.974V236.414L31.72 222.694V195.254H18ZM18 311.861H64.256L37.894 330.187V341.653L64.256 359.587H18L18 373.307H86.6V360.077L53.378 335.773L86.6 311.861V298.141H18V311.861ZM18 396.846L63.766 431.048H18V444.67H86.6V431.048L40.932 396.846H86.6V383.126H18V396.846ZM52.202 468.144H72.88V502.346H52.202V468.144ZM18 468.144H38.482V509.206L45.342 515.968H79.642L86.6 509.206V454.424H18V468.144ZM18 578.568L24.762 585.33H79.642L86.6 578.568V530.548L79.642 523.786H66.02V537.506H72.88V571.708H59.062L59.062 544.268H45.342L45.342 571.708H31.72V537.506H38.482V523.786H24.762L18 530.548V578.568ZM52.202 607.848H59.062L72.88 621.47V642.05H52.202V607.848ZM18 607.848H38.482L38.482 642.05H18V655.672H86.6L86.6 614.61L65.922 594.128H18V607.848ZM18 716.35L86.6 754.57V738.302L18 699.788V716.35ZM31.72 831.891V825.031L45.342 811.409H86.6V797.689H38.482L18 818.171V838.751L38.482 859.233H86.6V845.611H45.342L31.72 831.891ZM18 881.773H45.342V902.255L31.72 915.975H18V929.597H38.482L52.202 915.975L65.922 929.597H86.6V915.975H72.782L59.062 902.255V881.773H86.6V868.053H18V881.773ZM18 1032.42L24.762 1039.18H57.298V1008.31H43.578V1025.56H31.72V991.353H72.88V1025.56H66.02V1039.18H79.642L86.6 1032.42V984.395L79.642 977.633H24.762L18 984.395V1032.42ZM52.202 1062.65H72.88V1096.85H52.202V1062.65ZM18 1110.48H31.72L38.482 1103.71L45.342 1110.48H79.642L86.6 1103.71V1048.93H18V1062.65H38.482V1083.13L31.72 1089.99L24.762 1096.85H18L18 1110.48ZM31.72 1133.95H72.88L72.88 1168.15H31.72V1133.95ZM18 1175.01L24.762 1181.78H79.642L86.6 1175.01L86.6 1126.99L79.642 1120.23H24.762L18 1126.99V1175.01ZM86.6 1191.53H24.762L18 1198.29V1246.31L24.762 1253.07H86.6V1239.45H31.72V1205.25H86.6V1191.53ZM52.202 1276.55H72.88L72.88 1310.75H52.202L52.202 1276.55ZM18 1276.55H38.482V1317.61L45.342 1324.37H79.642L86.6 1317.61L86.6 1262.83H18V1276.55Z" fill="white" fill-opacity="0.5"/>
<path d="M147 20.3248H162.12L177.132 35.3368V42.8968L162.12 58.0168H147V73.0288H169.572L184.692 58.0168L199.812 73.0288H222.6V58.0168H207.372L192.252 42.8968V35.3368L207.372 20.3248L222.6 20.3248V5.20477L199.812 5.20477L184.692 20.3248L169.572 5.20477L147 5.20477V20.3248ZM184.692 96.7896H192.252L207.48 111.802V134.482H184.692V96.7896ZM147 96.7896H169.572V134.482H147V149.494H222.6V104.242L199.812 81.6696H147V96.7896ZM147 174.309H162.12L177.132 189.321V196.881L162.12 212.001H147V227.013H169.572L184.692 212.001L199.812 227.013H222.6V212.001H207.372L192.252 196.881V189.321L207.372 174.309H222.6V159.189H199.812L184.692 174.309L169.572 159.189H147V174.309ZM184.692 250.774H192.252L207.48 265.786V288.466H184.692V250.774ZM147 250.774H169.572V288.466H147V303.478H222.6L222.6 258.226L199.812 235.654H147V250.774ZM147 352.594H207.48V378.838H222.6V311.014H207.48V337.474H147V352.594ZM162.12 401.514H207.48V439.206H162.12V401.514ZM147 446.766L154.452 454.218H214.932L222.6 446.766V393.846L214.932 386.394H154.452L147 393.846V446.766ZM147 480.088H177.132V517.78H147V532.792H222.6V517.78H192.252V480.088H222.6V464.968H147V480.088ZM147 599.637L222.6 641.757V623.829L147 581.385V599.637ZM147 717.247H222.6L222.6 687.115H207.48V702.235H147V717.247ZM147 788.379L154.452 795.831H188.58L196.032 788.379V743.127H207.48V792.591H222.6V728.007H180.804V750.579V780.819H162.12V743.127H169.572V728.007H154.452L147 735.459V788.379ZM147 805.502V820.622H162.12V805.502H147ZM171.948 845.432H207.48V873.404L171.948 845.432ZM162.12 883.124V855.692L197.328 883.124H162.12ZM147 890.684L154.452 898.136H214.932L222.6 890.684V837.764L214.932 830.312H154.452L147 837.764V890.684ZM177.132 903.486H162.12V948.738H147V963.858H162.12V971.31H177.132V963.858H222.6V948.738L177.132 903.486ZM177.132 948.738V922.386L203.268 948.738H177.132ZM177.132 1018.92V1101.76H192.252V1018.92H177.132ZM207.48 1202.09H199.812L162.12 1149.28H147V1217.1H162.12V1174.98L192.252 1217.1H214.932L222.6 1209.65V1156.73L214.932 1149.28H199.92V1164.4H207.48V1202.09ZM147 1283.93L154.452 1291.38H184.8L192.36 1283.93V1272.37L201.108 1291.38H222.6L222.6 1223.55H199.92V1238.67H207.48V1276.37L192.252 1246.13H177.132V1276.37H162.12V1238.67H169.572V1223.55H154.452L147 1231.01V1283.93ZM147 1301.1V1316.22H162.12V1301.1H147ZM171.948 1341.03H207.48V1369L171.948 1341.03ZM162.12 1378.72V1351.29L197.328 1378.72H162.12ZM147 1386.28L154.452 1393.73H214.932L222.6 1386.28V1333.36L214.932 1325.91H154.452L147 1333.36L147 1386.28ZM177.132 1399.08H162.12V1444.34H147V1459.46H162.12V1466.91H177.132V1459.46H222.6V1444.34L177.132 1399.08ZM177.132 1444.34V1417.98L203.268 1444.34H177.132Z" fill="white" fill-opacity="0.5"/>
</svg>
